<svg xmlns="http://www.w3.org/2000/svg" width="103.64" height="44.306" viewBox="0 0 103.64 44.306">
  <g id="Group_93" data-name="Group 93" transform="translate(0 0)">
    <g id="Icon_ionic-ios-people" data-name="Icon ionic-ios-people" transform="translate(17.276)">
      <path id="Path_201" data-name="Path 201" d="M43.509,41.836c-1.7-.607-4.479-.638-5.709-1.108a8.066,8.066,0,0,1-2.642-1.23c-.44-.531-.44-4.327-.44-4.327a6.991,6.991,0,0,0,1.5-2.126,23.625,23.625,0,0,0,.729-4.176s1,.425,1.4-1.579c.334-1.731.972-2.642.8-3.917-.182-1.275-.881-.972-.881-.972s.881-1.291.881-5.679c0-4.525-3.416-8.974-9.809-8.974-6.377,0-9.824,4.464-9.824,8.974,0,4.388.865,5.679.865,5.679s-.714-.3-.881.972c-.182,1.275.456,2.186.8,3.917.395,2.019,1.4,1.579,1.4,1.579a23.853,23.853,0,0,0,.729,4.176,6.991,6.991,0,0,0,1.5,2.126s0,3.8-.44,4.327a7.762,7.762,0,0,1-2.642,1.215c-1.215.471-3.993.531-5.709,1.139a10.716,10.716,0,0,0-6.954,10.2H50.448A10.7,10.7,0,0,0,43.509,41.836Z" transform="translate(4.715 -7.748)" fill="#48bb78"/>
      <path id="Path_202" data-name="Path 202" d="M18.689,30.43s3.629-.121,5.071-1.412C21.407,25.45,22.683,21.29,22.2,17.4c-.486-3.872-2.688-6.195-7.091-6.195h-.061c-4.251,0-6.544,2.308-7.03,6.195-.486,3.872.865,8.5-1.549,11.616,1.442,1.306,5.087,1.26,5.087,1.26h0A7.69,7.69,0,0,1,11.4,32.83a3.834,3.834,0,0,1-1.822.835,35.229,35.229,0,0,0-3.933,1.093,6.393,6.393,0,0,0-3.432,5.648H14.407c.334-1.215,2.627-3.386,4.859-4.525a10.2,10.2,0,0,1,3.75-.79s.577-.911-1.321-1.26a12.943,12.943,0,0,1-2.915-1.017C18.492,32.48,18.689,30.43,18.689,30.43Z" transform="translate(-2.215 -3.737)" fill="#48bb78"/>
      <path id="Path_203" data-name="Path 203" d="M28.879,30.43s-3.629-.121-5.071-1.412c2.353-3.568,1.078-7.729,1.564-11.616.486-3.872,2.688-6.195,7.091-6.195h.061c4.251,0,6.544,2.308,7.03,6.195.486,3.872-.865,8.5,1.549,11.616-1.442,1.306-5.087,1.26-5.087,1.26h0a7.69,7.69,0,0,0,.152,2.551,3.834,3.834,0,0,0,1.822.835,35.23,35.23,0,0,1,3.933,1.093,6.393,6.393,0,0,1,3.432,5.648H33.161c-.334-1.215-2.627-3.386-4.859-4.525a10.2,10.2,0,0,0-3.75-.79s-.577-.911,1.321-1.26a12.943,12.943,0,0,0,2.915-1.017C29.077,32.48,28.879,30.43,28.879,30.43Z" transform="translate(22.822 -3.737)" fill="#48bb78"/>
    </g>
    <g id="Icon_ionic-ios-people-2" data-name="Icon ionic-ios-people" transform="translate(0 0.992)">
      <path id="Path_205" data-name="Path 205" d="M18.689,30.43s3.629-.121,5.071-1.412C21.407,25.45,22.683,21.29,22.2,17.4c-.486-3.872-2.688-6.195-7.091-6.195h-.061c-4.251,0-6.544,2.308-7.03,6.195-.486,3.872.865,8.5-1.549,11.616,1.442,1.306,5.087,1.26,5.087,1.26h0A7.69,7.69,0,0,1,11.4,32.83a3.834,3.834,0,0,1-1.822.835,35.229,35.229,0,0,0-3.933,1.093,6.393,6.393,0,0,0-3.432,5.648H14.407c.334-1.215,2.627-3.386,4.859-4.525a10.2,10.2,0,0,1,3.75-.79s.577-.911-1.321-1.26a12.943,12.943,0,0,1-2.915-1.017C18.492,32.48,18.689,30.43,18.689,30.43Z" transform="translate(-2.215 -11.208)" fill="#48bb78"/>
      <path id="Path_206" data-name="Path 206" d="M28.879,30.43s-3.629-.121-5.071-1.412c2.353-3.568,1.078-7.729,1.564-11.616.486-3.872,2.688-6.195,7.091-6.195h.061c4.251,0,6.544,2.308,7.03,6.195.486,3.872-.865,8.5,1.549,11.616-1.442,1.306-5.087,1.26-5.087,1.26h0a7.69,7.69,0,0,0,.152,2.551,3.834,3.834,0,0,0,1.822.835,35.23,35.23,0,0,1,3.933,1.093,6.393,6.393,0,0,1,3.432,5.648H33.161c-.334-1.215-2.627-3.386-4.859-4.525a10.2,10.2,0,0,0-3.75-.79s-.577-.911,1.321-1.26a12.943,12.943,0,0,0,2.915-1.017C29.077,32.48,28.879,30.43,28.879,30.43Z" transform="translate(58.287 -11.208)" fill="#48bb78"/>
    </g>
  </g>
</svg>
