<svg xmlns="http://www.w3.org/2000/svg" width="59" height="33" viewBox="0 0 59 33">
  <g id="Group_49" data-name="Group 49" transform="translate(-1444 -1211)">
    <text id="_29" data-name="29" transform="translate(1476 1236)" fill="#707070" font-size="24" font-family="Poppins-Regular, Poppins"><tspan x="-14.46" y="0">29</tspan></text>
    <g id="Money_sign" data-name="Money sign" transform="translate(1444 1218)">
      <path id="Icon_material-euro-symbol" data-name="Icon material-euro-symbol" d="M14.5,17.417A5.4,5.4,0,0,1,9.7,14.5h4.8V12.833H9.15a5.242,5.242,0,0,1,0-1.667H14.5V9.5H9.7a5.406,5.406,0,0,1,8.325-1.608L19.5,6.417A7.489,7.489,0,0,0,7.433,9.5H4.5v1.667H7.05a6.969,6.969,0,0,0,0,1.667H4.5V14.5H7.433A7.489,7.489,0,0,0,19.5,17.583l-1.483-1.475A5.338,5.338,0,0,1,14.5,17.417Z" transform="translate(-4.5 -4.5)" fill="#707070"/>
    </g>
    <text id="_99" data-name="99" transform="translate(1496 1227)" fill="#707070" font-size="10" font-family="Poppins-Regular, Poppins"><tspan x="-6.3" y="0">99</tspan></text>
  </g>
</svg>
